# xmcd
#
# Track frame offsets:
#	150
#	15284
#	28517
#	43921
#	57651
#	68709
#	82860
#	96472
#	108229
#	122673
#	134022
#	147897
#
# Disc length: 2186 seconds
#
# Revision: 1
# Processed by: cddbd v1.5.2PL0 Copyright (c) Steve Scherf et al.
# Submitted via: EasyCDDAExtractor 16.0.8.2
#
DISCID=a308880c
DTITLE=Αξέχαστα ρεμπέτικα 4
DYEAR=2006
DGENRE=Ρεμπέτικη
TTITLE0=Τσιτσάνης Βασίλης - Θα κάνω ντου βρε πονηρή [Β. Τσιτσάνης-Κ. Βίρβος]
TTITLE1=Μπίνης Τάκης - Πες μου, αν με βαρέθηκες [Μ. Χιώτης]
TTITLE2=Νίνου Μαρίκα - Κι ο μήνας έχει εννιά [Μ. Σουγιούλ-Γ. Τζαβέλλας]
TTITLE3=Δασκαλάκης Μιχάλης - Βλάμης απ' το Μιλάνο [Μ. Δασκαλάκης]
TTITLE4=Ζαγοραίος Σπύρος - Ηλιοβασίλεμα σωστό [Κ. Μάνεσης-Ι. Γεωργακοπούλου]
TTITLE5=Γενίτσαρης Μιχάλης - Καραντουζένι κούρτισα [Μ. Γενίτσαρης]
TTITLE6=Μπίνης Τάκης - Απόψε θα περάσω [Σ. Περιστέρης]
TTITLE7=Σκαρπέλης Κούλης - Παίζει το μπαγλαμαδάκι [Σ. Παγιουμτζής-Κ. Καπλάνης]
TTITLE8=Ρούκουνας Κώστας ή Σαμιωτάκης - Φτωχομάνα Σμύρνη [Κ. Ρούκουνας]
TTITLE9=Νίνου Μαρίκα - Εύχομαι και στα δικά σου [Θ.Δερβενιώτης-Χρ.Κολοκοτρώνης
TTITLE9=]
TTITLE10=Παγιουμτζής Στράτος - Άνθρωπος δίχως βάσανα [Σ. Παγιουμτζής]
TTITLE11=Νίνου Μαρίκα-Τσιτσάνης Βασίλης - Χασαποσέρβικο [Β. Τσιτσάνης]
EXTD=
EXTT0=
EXTT1=
EXTT2=
EXTT3=
EXTT4=
EXTT5=
EXTT6=
EXTT7=
EXTT8=
EXTT9=
EXTT10=
EXTT11=
PLAYORDER=
